<?xml version="1.0" encoding="utf-8"?>
<!-- Generator: Adobe Illustrator 15.1.0, SVG Export Plug-In . SVG Version: 6.00 Build 0)  -->
<!DOCTYPE svg PUBLIC "-//W3C//DTD SVG 1.1//EN" "http://www.w3.org/Graphics/SVG/1.1/DTD/svg11.dtd">
<svg version="1.1" id="Layer_1" xmlns="http://www.w3.org/2000/svg" xmlns:xlink="http://www.w3.org/1999/xlink" x="0px" y="0px"
	 width="749.426px" height="761.486px" viewBox="-64.745 45.5 749.426 761.486"
	 enable-background="new -64.745 45.5 749.426 761.486" xml:space="preserve">
<g id="svga-group-hair-back-move" transform="matrix(1,0,0,1,0,0)">
	<g id="svga-group-hair-back" transform="matrix(1,0,0,1,0,0)">
		<path id="SvgjsPath3576" fill="#56342E" d="M311.955,396.13h-3.703v-3.06h3.703V396.13z"/>
	</g>
</g>
<g id="svga-group-humanbody-single">
	<path id="SvgjsPath2914" fill="#CDA184" d="M663.455,699.886c-8.146-14.483-30.361-36.006-55.045-42.023
		c-30.484-7.345-99.353-16.219-124.901-21.216c-20.487-3.979-61.71-34.578-76.15-44.881c-2.591-1.836-4.689-5.609-4.813-8.466
		c-0.493-33.252,15.552-121.584,15.552-121.584H310.104H202.111c0,0,16.044,88.332,15.551,121.584c0,2.856-2.222,6.63-4.813,8.466
		c-14.439,10.303-55.663,40.902-76.15,44.881c-25.547,4.896-94.416,14.178-124.901,21.521
		c-24.684,5.916-46.899,27.132-55.044,41.718c-13.7,24.582-16.909,68.851-16.909,107.101h370.261h370.26
		C680.364,768.736,677.154,724.468,663.455,699.886z"/>
	<path id="SvgjsPath2915" fill="#DCBAA4" d="M529.174,651.844c90.097,10.812,128.11,26.622,139.959,155.244h11.231
		c0-38.25-3.21-82.62-16.909-107.1c-8.146-14.484-30.361-36.006-55.045-42.024c-30.484-7.344-99.353-16.218-124.901-21.216
		c-20.487-3.979-67.511-36.924-80.099-50.082c12.465,14.382,47.394,47.736,78.001,56.508
		C495.976,647.355,508.069,649.294,529.174,651.844z M138.92,643.174c30.607-8.771,65.536-42.126,78.001-56.508
		c-12.589,13.056-59.611,46.104-80.099,49.98c-25.549,4.896-94.417,14.178-124.901,21.521
		c-24.684,5.916-46.899,27.132-55.045,41.718c-13.823,24.582-17.032,68.851-17.032,107.101h11.23
		c11.849-127.704,49.862-144.33,139.959-155.244C112.139,649.294,124.233,647.355,138.92,643.174z"/>
	<path id="SvgjsPath2916" fill="#BE8A67" d="M293.936,693.358c0,0-18.76-4.896-26.165-7.242
		c-38.63-12.24-164.396-20.196-164.396-20.196s132.43,4.386,161.558,8.466c-1.729-14.586-11.232-61.2-11.232-61.2
		s19.007,51.408,23.697,64.465C279.989,684.484,293.936,693.358,293.936,693.358z M333.923,689.176
		c-0.369,0.204-0.739,0.51-1.11,0.816C333.307,689.788,333.678,689.482,333.923,689.176z M293.936,693.358
		c0,0,10.737,9.18,16.044,9.281c7.036,0.204,17.896-8.874,22.833-12.546c-4.689,2.958-15.427,4.284-19.623,4.387
		C308.252,694.582,293.936,693.358,293.936,693.358z M371.813,670.306c-5.677,0.714-16.291,2.448-16.291,2.448l8.517-45.594
		c-2.346,9.384-16.539,49.572-30.116,62.016c7.036-4.896,22.834-7.344,30.856-8.262c37.89-4.59,37.89-4.488,152.053-15.096
		C516.832,665.818,409.211,665.308,371.813,670.306z"/>
	<path id="SvgjsPath2917" fill="none" stroke="#9F6037" stroke-width="1.5" d="M663.455,699.886
		c-8.146-14.483-30.361-36.006-55.045-42.023c-30.484-7.345-99.353-16.219-124.901-21.216c-20.487-3.979-61.71-34.578-76.15-44.881
		c-2.591-1.836-4.689-5.609-4.813-8.466c-0.493-33.252,15.552-121.584,15.552-121.584H310.104H202.111
		c0,0,16.044,88.332,15.551,121.584c0,2.856-2.222,6.63-4.813,8.466c-14.439,10.303-55.663,40.902-76.15,44.881
		c-25.547,4.896-94.416,14.178-124.901,21.521c-24.684,5.916-46.899,27.132-55.044,41.718
		c-13.7,24.582-16.909,68.851-16.909,107.101h370.261h370.26C680.364,768.736,677.154,724.468,663.455,699.886z"/>
</g>
<g id="svga-group-chinshadow-single">
	
		<linearGradient id="SvgjsPath3668_1_" gradientUnits="userSpaceOnUse" x1="98.3452" y1="297.5459" x2="98.3452" y2="253.5459" gradientTransform="matrix(3.06 0 0 3.06 9.1692 -298.6301)">
		<stop  offset="0" style="stop-color:#BE8A67;stop-opacity:0.8"/>
		<stop  offset="0.7" style="stop-color:#9F6037"/>
	</linearGradient>
	<path id="SvgjsPath3668" fill="url(#SvgjsPath3668_1_)" d="M310.104,611.452c42.209,0,61.586-19.482,89.727-29.479
		c0-24.275,7.527-73.235,12.096-100.674c-59.736-5.712-143.909-5.712-203.645,0c4.566,27.438,12.218,76.398,12.095,100.674
		C248.518,591.97,267.894,611.452,310.104,611.452z"/>
</g>
<g id="svga-group-clothes-single">
	<path id="SvgjsPath3709" fill="#F3F1F4" d="M247.899,810.148c-158.348,0-270.66-1.021-309.414-2.856
		C-73.361,680.404,1.678,653.271,34.507,647.56c18.883-3.773,33.817-4.896,47.023-5.916c31.349-2.447,56.155-4.283,111.447-37.434
		c1.976,2.04,6.665,7.242,15.429,17.034c25.671,28.254,64.425,44.37,106.264,44.37l0,0c47.395,0,91.825-20.4,122.31-55.896
		c55.786,28.356,67.511,29.172,95.526,31.416c9.258,0.714,20.735,1.632,36.286,3.672c43.814,4.896,77.138,24.786,96.268,57.528
		c16.293,27.846,22.338,64.872,16.909,104.346C638.647,808.516,445.741,810.148,247.899,810.148L247.899,810.148z"/>
	<path id="SvgjsPath3710" fill="#CFC8D7" d="M572.619,646.336c-62.081-8.466-63.933-3.774-136.38-38.658
		c-60.971,72.828-171.554,73.032-226.354,12.853c-1.11-1.326-15.303-17.238-16.784-18.36
		c-79.729,48.042-96.145,32.64-159.829,44.472c-63.562,11.832-106.758,53.244-96.514,160.956c0,0.408,0,0.715,0.122,1.021
		c96.886,4.896,672.888,3.06,746.568-0.714C688.756,731.71,681.228,660.922,572.619,646.336z M-61.391,807.598
		c-1.729-67.523,10.861-141.372,97.256-155.754c64.054-10.71,78.742,3.366,156.99-48.042c4.072,5.101,8.886,11.424,14.192,18.259
		c48.997,62.117,164.643,71.909,229.808-12.24c6.912,4.386,14.934,9.281,23.944,14.076c85.9,46.817,224.871-14.383,220.922,183.294
		C439.448,803.518,184.092,803.518-61.391,807.598z"/>
	<path id="SvgjsPath3711" fill="#131111" d="M337.627,815.962c-10.244,0-39.742,0.612-61.093-0.714v-0.51
		c-3.087-57.12,4.195-94.044,16.784-120.259l0.124-0.407l-0.371-0.307c-3.332-2.754-9.01-5.916-14.934-9.281
		c-5.923-3.366-12.095-6.834-16.045-9.895c2.346-2.244,5.185-4.488,8.641-6.731c0.863-0.408,4.319-2.551,22.091-15.198
		c0.741-0.612,1.234-0.918,1.358-0.918c3.086-0.511,7.899-0.918,13.822-0.918c8.022,0,17.526,0.714,24.068,1.733
		c5.801,4.488,12.835,16.32,15.427,21.931c-3.578,7.038-7.898,9.588-13.822,13.157c-2.84,1.734-6.172,3.673-9.874,6.427
		l-0.247,0.204l0.124,0.306c14.933,62.118,14.933,76.704,14.933,90.678c0,6.222,0,20.196,1.235,30.601
		C339.479,815.962,338.613,815.962,337.627,815.962z"/>
	<path id="SvgjsPath3712" d="M348.365,674.59c-2.841-6.12-9.999-18.156-15.799-22.542c-10.614-1.733-29.497-2.55-38.754-0.714
		c-0.37,0.306-23.079,16.422-23.326,16.116c-3.333,2.142-6.665,4.59-9.381,7.344c7.653,6.324,24.684,13.974,31.473,19.584
		c-13.453,28.05-19.747,66.096-16.785,120.462c0,0.307,0,0.714,0.123,1.021c25.056,1.632,61.217,1.02,64.92,0.714
		c-4.319-34.578,5.308-32.028-16.292-121.992C335.899,686.014,342.934,685.402,348.365,674.59z M328.987,732.832
		c-0.124-0.102-0.124-0.306-0.246-0.408c7.403,32.334,5.06,57.019,10.737,82.519c-17.526-1.021-44.433-0.204-62.081-0.204
		c1.357-22.032,4.443-97.002,17.526-121.584c0.616-0.103,1.233-0.307,1.851-0.408l-3.826,106.284l10.121-107.305
		c0.123,0,0.123,0,0.247,0l6.664,99.756l1.604-100.163c0.123,0,0.247,0,0.247,0L327.506,802.6l-8.516-110.567
		c1.11,0.204,2.345,0.408,3.456,0.714c0.123,0,0.247,0,0.369,0.102C323.187,695.908,326.272,718.552,328.987,732.832z
		 M325.778,690.604c-10.244-3.875-23.574-3.161-33.817,0.715c-6.172-5.509-15.058-9.385-27.893-16.524
		c1.975-1.428,4.69-3.264,8.146-5.508c0.245,0,12.834-8.466,13.081-8.67c3.456-2.55,6.418-5.508,9.381-8.059
		c10.86-0.407,26.782,0.103,36.408,0.408c5.554,5.712,10.861,14.382,14.812,21.216C338.613,683.056,331.455,686.932,325.778,690.604
		z"/>
	<path id="SvgjsPath3713" fill="#F3F1F4" d="M229.388,740.584c-42.704-122.604-36.903-83.844-48.258-131.988
		c7.528-14.688,28.14-38.658,32.089-42.126l0.247-0.306c8.516,73.439,33.199,41.718,88.122,84.864
		C270.239,668.266,241.111,713.248,229.388,740.584z M441.053,609.718c-5.308-11.321-30.484-35.7-34.805-39.372
		c5.307,63.24-56.032,50.694-90.097,80.172c32.583,17.442,63.562,63.24,74.67,90.168
		C438.461,628.384,428.71,673.672,441.053,609.718z"/>
	<path id="SvgjsPath3714" fill="#CFC8D7" d="M405.632,568.918c0,15.708-1.605,28.05-4.69,31.62
		c-9.01,17.748-48.504,30.192-60.724,35.19c-9.255,3.773-18.266,8.567-25.301,14.789c14.07,7.549,21.105,10.303,47.888,44.166
		c15.674,21.727,24.19,38.047,28.017,47.839c47.887-107.61,39.493-70.585,51.095-133.11
		C436.115,597.07,409.333,571.774,405.632,568.918z M390.45,733.24c-9.997-26.418-40.975-70.074-71.954-82.926
		c14.563-9.078,18.637-9.589,36.039-16.116c53.317-19.687,55.539-37.944,52.329-62.017c4.443,4.387,27.153,26.521,32.954,36.822
		C425.008,679.486,409.827,677.038,390.45,733.24z M233.09,614.614c-16.292-11.118-11.725-24.99-19.254-49.572
		c-3.332,3.06-28.633,27.132-37.026,43.758c26.412,74.562,27.275,68.851,52.578,133.824c11.23-27.234,42.827-74.562,74.916-91.8
		C278.632,631.444,246.296,624.1,233.09,614.614z M253.331,692.644c-8.27,11.221-16.786,22.849-23.573,40.597
		c-4.32-24.276-41.347-98.838-47.888-125.256c6.048-11.017,28.757-38.148,31.596-40.29c5.061,21.624,0.247,41.208,20.981,52.02
		c9.75,6.12,41.1,16.32,64.919,31.722C284.926,658.474,277.15,662.656,253.331,692.644z"/>
	<path id="SvgjsPath3715" fill="#386E77" d="M124.48,807.394c-32.83,0-62.451-0.407-85.777-1.224
		c-0.246-1.734-0.617-3.876-0.987-6.528C33.767,772.612,23.522,701.314,1.8,654.19c35.176-11.73,92.689-20.503,135.639-24.889
		c29.004,49.674,98.984,129.54,148.104,175.134C230.251,806.476,174.588,807.394,124.48,807.394L124.48,807.394z M495.729,807.394
		c32.829,0,62.449-0.407,85.776-1.224c0.247-1.734,0.616-3.876,0.987-6.528c3.949-27.029,14.192-98.327,35.915-145.451
		c-35.175-11.73-92.688-20.503-135.639-24.889c-29.005,49.674-98.983,129.54-148.104,175.134
		C389.956,806.476,445.619,807.394,495.729,807.394L495.729,807.394z"/>
	<path id="SvgjsPath3716" fill="#4D7E86" d="M58.943,737.218L20.066,697.54l9.011-49.164l36.037,39.168L58.943,737.218z
		 M115.348,677.854l-42.951-38.861l-7.282,48.45l42.951,37.943L115.348,677.854z M157.68,664.288l-43.319-31.62l0.987,45.186
		l45.665,35.395L157.68,664.288z M96.587,773.02l-37.644-35.802l-18.636,46.92l41.223,39.78L96.587,773.02z M154.965,761.29
		l-46.899-35.904L96.587,773.02l52.7,33.967L154.965,761.29z M211.491,742.012l-50.603-28.764l-5.924,48.042l52.947,33.966
		L211.491,742.012z M555.093,687.544l36.038-39.168l9.011,49.164l-38.755,39.678L555.093,687.544z M512.143,725.488l42.95-37.944
		l-7.282-48.45l-42.949,38.862L512.143,725.488z M459.318,713.248l45.665-35.395l0.988-45.186l-43.32,31.62L459.318,713.248z
		 M538.678,823.918l41.222-39.78l-18.635-46.92L523.62,773.02L538.678,823.918z M470.92,807.088l52.7-34.068l-11.478-47.634
		l-46.899,35.904L470.92,807.088z M412.296,795.256l52.947-33.966l-5.925-48.042l-50.602,28.764L412.296,795.256z"/>
	<path id="SvgjsPath3717" fill="#0C4049" d="M138.673,627.771C98.686,631.75,36.976,640.624-0.421,653.374v0.102
		c24.685,52.632,34.928,137.395,37.52,154.122c50.603,1.734,142.304,2.04,252.517-1.733
		C242.223,762.412,168.171,679.078,138.673,627.771z M39.567,805.456c0-26.826-9.75-103.632-36.286-150.96
		c53.194-13.056,89.232-16.932,133.664-24.276c32.089,63.24,81.704,123.727,142.303,172.687
		C202.234,801.479,116.582,802.294,39.567,805.456z M330.591,805.966c110.215,3.774,201.915,3.468,252.519,1.734
		c2.715-16.729,12.836-101.592,37.52-154.122v-0.103c-37.396-12.852-99.106-21.624-139.096-25.602
		C452.036,679.078,377.984,762.412,330.591,805.966z M340.959,803.008c60.599-49.062,110.214-109.548,142.303-172.788
		c44.432,7.345,80.471,11.221,133.664,24.276c-26.535,47.328-36.285,124.134-36.285,150.96
		C503.626,802.294,417.972,801.479,340.959,803.008z"/>
</g>
<g id="svga-group-ears-left-move" transform="matrix(1,0,0,1,0,0)">
	<g id="svga-group-ears-left" transform="matrix(1,0,0,1,0,0)">
		<path id="SvgjsPath2927" fill="#CDA184" stroke="#9F6037" stroke-width="1.5" d="M108.929,346.66
			c-5.554-7.548-23.449-28.152-37.148-25.296c-11.108,2.346-10.985,15.198-11.849,22.848c-1.234,11.118-1.729,30.601,1.975,38.454
			c3.579,7.548,14.688,22.236,21.598,27.744c8.517,6.834,22.093,28.662,23.821,30.906c2.592,3.569,7.898,8.67,16.044,8.262
			c11.354-0.612,21.229-9.486,22.093-13.771C150.152,412.756,123.246,366.244,108.929,346.66z"/>
		<path id="SvgjsPath2928" fill="#9F6037" d="M103.499,392.56c-0.494-1.733,0-4.59,0.616-7.445c0.494-2.55,0.988-4.998,0.618-6.63
			c-1.111-6.427-7.035-18.564-10.985-25.092c-4.566-7.548-11.848-17.136-20.98-19.584c-3.826-1.02-6.295,0.204-7.776,1.428
			c-1.11,0.918-1.356,1.938-0.987,2.142c0.371,0.102,1.11-0.714,2.345-1.632c0.987-0.714-1.851-0.102,0,0
			c-0.74,3.162-3.208,19.278-1.479,31.008c1.356,9.282,3.948,16.116,4.689,17.238c0.123,1.122,0.246,2.142,0.617,3.162
			c3.702,13.464,27.893,31.109,33.446,36.21c0.987,0.918,2.098,1.428,2.345,1.224s-0.37-1.122-1.357-2.04
			c-5.554-4.998-29.497-22.542-33.076-35.598c-3.826-13.771,14.439-34.272,17.401-38.658c1.481,2.04,2.716,3.978,3.703,5.61
			c0.739,1.326,1.604,2.754,2.468,4.386c-1.729,2.244-19.006,18.768-14.562,31.926c1.604,4.896,14.192,11.118,19.006,12.853
			c2.716,0.918,3.703,2.346,4.813,3.978c1.357,1.938,0.124,6.834,4.566,8.364c0.865,0.306,1.729,0.408,2.469,0.408
			c1.234,0,2.222-0.408,2.839-0.918c0.124,0.815,0.124,1.938,0,2.855c0,1.326,0.124,1.836,0.493,1.938
			c0.371,0,0.741-0.511,0.865-1.836c0.123-1.53,0-3.469-0.247-4.387c-0.987-2.754-4.074-5.813-7.282-9.078
			C104.856,401.332,104.362,395.212,103.499,392.56z M69.312,380.626c-8.64-21.216,4.69-40.494,6.665-43.35
			c3.702,1.224,9.503,6.732,11.971,9.894C86.22,349.72,69.682,366.346,69.312,380.626z M109.3,414.388
			c-4.074-1.428-2.593-6.12-3.95-7.956c-1.234-1.632-2.345-3.365-5.431-4.487c-0.616-0.204-1.357-0.612-2.098-1.021
			c-9.874-18.563,1.111-26.724,3.826-28.355c0.864,2.244,1.48,4.386,1.728,6.018c0.247,1.53-0.247,3.979-0.616,6.324
			c-0.618,2.958-1.111,5.916-0.494,7.956c0.863,2.958,1.481,9.078,4.813,12.342c2.839,2.958,5.801,5.916,6.911,8.364
			C113.373,414.184,112.015,415.306,109.3,414.388z"/>
	</g>
</g>
<g id="svga-group-ears-right-move" transform="matrix(1,0,0,1,0,0)">
	<g id="svga-group-ears-right" transform="matrix(1,0,0,1,0,0)">
		<path id="SvgjsPath2929" fill="#CDA184" stroke="#9F6037" stroke-width="1.5" d="M510.291,346.66
			c5.554-7.548,23.45-28.152,37.149-25.296c11.108,2.346,10.984,15.198,11.849,22.848c1.234,11.118,1.729,30.601-1.975,38.454
			c-3.579,7.548-14.687,22.236-21.599,27.744c-8.517,6.834-22.092,28.662-23.82,30.906c-2.591,3.569-7.899,8.67-16.045,8.262
			c-11.354-0.612-21.228-9.486-22.092-13.771C469.069,412.756,495.976,366.244,510.291,346.66z"/>
		<path id="SvgjsPath2930" fill="#9F6037" d="M511.278,404.494c-3.209,3.264-6.295,6.324-7.282,9.078
			c-0.37,0.918-0.37,2.855-0.245,4.386c0,1.224,0.492,1.836,0.863,1.836c0.369,0,0.616-0.612,0.493-1.938c0-1.021,0-2.04,0-2.856
			c0.74,0.51,1.604,0.918,2.839,0.918c0.74,0,1.48-0.102,2.469-0.408c4.443-1.529,3.209-6.426,4.566-8.363
			c1.11-1.633,2.222-3.061,4.812-3.979c4.814-1.734,17.402-7.956,19.007-12.852c4.443-13.158-12.835-29.683-14.563-31.926
			c0.863-1.632,1.729-3.162,2.468-4.386c0.988-1.632,2.222-3.57,3.704-5.61c2.961,4.284,21.228,24.786,17.401,38.658
			c-3.579,13.057-27.522,30.601-33.076,35.599c-0.987,0.918-1.729,1.836-1.357,2.04c0.247,0.203,1.357-0.307,2.345-1.225
			c5.554-4.998,29.744-22.644,33.447-36.21c0.247-1.02,0.494-2.142,0.616-3.162c0.741-1.02,3.332-7.956,4.69-17.237
			c1.728-11.73-0.74-27.847-1.48-31.008c1.851-0.102-0.988-0.714,0,0c1.11,0.816,1.975,1.734,2.344,1.632
			c0.37-0.102,0.123-1.224-0.987-2.142c-1.48-1.224-3.949-2.448-7.775-1.428c-9.133,2.448-16.538,12.036-20.981,19.584
			c-3.949,6.63-9.997,18.768-10.983,25.092c-0.247,1.734,0.123,4.08,0.616,6.63c0.494,2.754,1.111,5.712,0.617,7.446
			C514.858,395.212,514.364,401.332,511.278,404.494z M531.273,347.17c2.468-3.162,8.145-8.67,11.971-9.894
			c1.975,2.856,15.427,22.236,6.664,43.35C549.539,366.346,533.123,349.72,531.273,347.17z M505.354,413.674
			c0.987-2.448,3.95-5.508,6.911-8.364c3.209-3.264,3.826-9.485,4.813-12.342c0.617-1.938,0-4.998-0.494-7.956
			c-0.493-2.346-0.987-4.794-0.616-6.324c0.246-1.632,0.863-3.773,1.728-6.018c2.716,1.632,13.824,9.792,3.826,28.356
			c-0.74,0.407-1.481,0.815-2.222,1.02c-3.086,1.122-4.319,2.856-5.43,4.488c-1.358,1.836,0.122,6.527-3.95,7.956
			C507.205,415.306,505.848,414.184,505.354,413.674z"/>
	</g>
</g>
<g id="svga-group-faceshape-wrap" transform="matrix(1,0,0,1,0,0)">
	<g id="svga-group-faceshape-single">
		<path id="SvgjsPath3665" fill="#CDA184" d="M310.104,91.252c-124.531,0.204-225.613,84.66-225.366,188.802
			c0,16.524,2.593,32.538,7.406,47.838l0,0c0,0.204,30.114,109.548,43.813,145.452c10.244,26.929,52.947,67.32,82.938,77.521
			c29.003,9.894,48.257,30.09,91.208,30.09c42.949,0,62.326-20.196,91.206-30.09c29.991-10.2,72.695-50.592,82.938-77.521
			c13.701-35.802,43.691-145.248,43.814-145.452l0,0c4.814-15.3,7.405-31.314,7.405-47.838
			C535.716,175.912,434.634,91.456,310.104,91.252z"/>
		<path id="SvgjsPath3666" fill="#C59575" d="M460.923,139.804c38.631,34.17,62.45,81.294,62.328,133.416
			c0,16.524-2.469,32.538-7.036,47.838l0,0c0,0.204-28.387,109.548-41.346,145.452c-9.75,26.928-49.984,67.32-78.494,77.521
			c-27.399,9.792-45.666,30.09-86.271,30.09c-40.605,0-58.873-20.196-86.271-30.09c-28.388-10.2-68.746-50.593-78.495-77.521
			c-12.96-35.903-41.346-145.35-41.346-145.452l0,0c-4.568-15.3-7.036-31.314-7.036-47.838
			c-0.123-52.02,23.82-99.246,62.328-133.314c-45.789,34.578-74.67,84.558-74.547,140.25c0,16.524,2.593,32.538,7.406,47.838l0,0
			c0,0.204,30.114,109.548,43.813,145.452c10.244,26.928,52.947,67.319,82.938,77.52c29.003,9.895,48.257,30.09,91.208,30.09
			c42.949,0,62.326-20.195,91.206-30.09c29.991-10.2,72.695-50.592,82.938-77.52c13.701-35.802,43.691-145.248,43.814-145.452l0,0
			c4.814-15.3,7.405-31.314,7.405-47.838C535.592,224.362,506.712,174.382,460.923,139.804z"/>
		<path id="SvgjsPath3667" fill="none" stroke="#9F6037" stroke-width="1.5" d="M310.104,91.252
			c-124.531,0.204-225.613,84.66-225.366,188.802c0,16.524,2.593,32.538,7.406,47.838l0,0c0,0.204,30.114,109.548,43.813,145.452
			c10.244,26.929,52.947,67.32,82.938,77.521c29.003,9.894,48.257,30.09,91.208,30.09c42.949,0,62.326-20.196,91.206-30.09
			c29.991-10.2,72.695-50.592,82.938-77.521c13.701-35.802,43.691-145.248,43.814-145.452l0,0c4.814-15.3,7.405-31.314,7.405-47.838
			C535.716,175.912,434.634,91.456,310.104,91.252z"/>
	</g>
</g>
<g id="svga-group-mouth-single-move" transform="matrix(1,0,0,1,0,0)">
	<g id="svga-group-mouth-single" transform="matrix(1,0,0,1,0,0)">
		
			<linearGradient id="SvgjsPath3178_1_" gradientUnits="userSpaceOnUse" x1="98.8091" y1="268.5454" x2="98.8091" y2="265.5454" gradientTransform="matrix(3.06 0 0 3.06 9.1692 -298.6301)">
			<stop  offset="0.1" style="stop-color:#C59575"/>
			<stop  offset="1" style="stop-color:#BE8A67"/>
		</linearGradient>
		<path id="SvgjsPath3178" fill="url(#SvgjsPath3178_1_)" d="M296.157,514.654l30.731-0.612
			C323.31,527.71,298.625,525.772,296.157,514.654z"/>
		<path id="SvgjsPath3182" fill="#9F6037" d="M296.527,515.572c-1.358-0.103-1.111-1.734,0.247-1.632
			c0.123,0,15.921,1.632,29.127-0.612c1.481-0.204,1.852,1.428,0.493,1.632C316.151,516.694,302.698,516.286,296.527,515.572z
			 M310.352,504.556c-5.555,0-10.985-1.632-16.416-2.346c-6.047-0.918-12.095-0.102-18.143,0.306c-6.171,0.408-19.748,0-23.573-2.04
			c-2.099-1.122-1.729-3.773,0.617-4.386c2.221-0.714,5.801,0.714,8.146,1.021c10.614,1.529,16.292-0.103,25.548-0.408
			c14.317-0.306,15.798,4.59,33.57,1.632c19.131-3.162,27.771-0.816,41.47-4.182c1.852-0.511,4.073-1.734,6.048-0.918
			c2.222,1.02,2.222,3.672-0.125,4.487c-12.588,4.591-26.534,2.754-40.604,4.692C321.459,503.23,316.027,504.556,310.352,504.556z"
			/>
	</g>
</g>
<g id="svga-group-eyes-left-move" transform="matrix(1,0,0,1,0,0)">
	<g id="svga-group-eyes-left" transform="matrix(1,0,0,1,0,0)">
		<g id="svga-group-eyesback-left">
			
				<radialGradient id="SvgjsPath3390_1_" cx="120.6309" cy="211.2158" r="15.179" gradientTransform="matrix(-3.3871 0.1466 0.1936 3.0557 578.483 -317.7615)" gradientUnits="userSpaceOnUse">
				<stop  offset="0" style="stop-color:#FFFFFF"/>
				<stop  offset="0.544" style="stop-color:#FDFEFE"/>
				<stop  offset="0.74" style="stop-color:#F6F8F9"/>
				<stop  offset="0.879" style="stop-color:#EAEFF2"/>
				<stop  offset="0.992" style="stop-color:#D9E3E8"/>
				<stop  offset="1" style="stop-color:#D8E2E7"/>
			</radialGradient>
			<path id="SvgjsPath3390" fill="url(#SvgjsPath3390_1_)" d="M163.604,336.358c4.566-3.57,33.694-8.16,50.479-6.324
				c26.535,2.856,48.134,22.338,48.134,22.338s-17.896,9.384-50.355,10.914C190.387,364.102,168.911,352.678,163.604,336.358z"/>
		</g>
		<g id="svga-group-eyesiriswrapper-left" transform="matrix(1,0,0,1,0.25,0)">
			<g id="svga-group-eyesiriscontrol-left" transform="matrix(1,0,0,1,0,0)">
				<g id="svga-group-eyesiris-left" transform="matrix(1,0,0,1,0,0)">
					<path id="SvgjsPath3448" fill="#7B5C33" d="M236.728,345.64c0,10.098-9.997,18.36-22.216,18.36s-22.216-8.262-22.216-18.36l0,0
						c0-10.098,9.997-18.36,22.216-18.36S236.728,335.542,236.728,345.64L236.728,345.64z"/>
					
						<radialGradient id="SvgjsPath3449_1_" cx="-623.2905" cy="-115.291" r="59.7512" gradientTransform="matrix(0.3554 -0.0759 0.0907 0.2941 446.239 332.3045)" gradientUnits="userSpaceOnUse">
						<stop  offset="0" style="stop-color:#FFFFFF"/>
						<stop  offset="1" style="stop-color:#FFFFFF;stop-opacity:0"/>
					</radialGradient>
					<path id="SvgjsPath3449" opacity="0.7" fill="url(#SvgjsPath3449_1_)" enable-background="new    " d="M212.043,327.484
						c-0.123,0-0.123,0-0.247,0c0.124,0.408,0.247,0.816,0.371,1.224C212.043,328.3,212.043,327.892,212.043,327.484z
						 M212.043,328.708c0.247,6.018,0.74,11.424,1.975,13.362C214.636,339.928,213.523,334.624,212.043,328.708z M214.018,342.07
						c-0.123,0.51-0.37,0.816-0.74,1.02s-0.864,0-1.357-0.306c0.123,0.51,0.123,0.918-0.124,1.122
						c-0.247,0.204-0.739,0.306-1.357,0.204c0.371,0.408,0.618,0.714,0.494,1.122c-0.123,0.306-0.494,0.51-1.11,0.714
						c0.616,0.204,0.987,0.408,1.11,0.714c0.124,0.306-0.123,0.714-0.494,1.122c0.618-0.102,1.11,0,1.357,0.204
						c0.247,0.204,0.247,0.612,0.124,1.122c0.493-0.306,0.987-0.408,1.357-0.306s0.617,0.51,0.74,1.02
						c0.247-0.51,0.618-0.714,0.987-0.816c0.371,0,0.741,0.204,1.234,0.612c0-0.51,0.124-0.918,0.494-1.122
						c0.369-0.204,0.863-0.102,1.357,0c-0.247-0.51-0.37-0.816-0.247-1.122c0.124-0.306,0.617-0.408,1.234-0.51
						c-0.494-0.306-0.863-0.612-0.863-0.918c0-0.306,0.369-0.612,0.863-0.918c-0.617-0.102-1.11-0.204-1.234-0.51
						c-0.123-0.306-0.123-0.714,0.247-1.122c-0.617,0.204-1.11,0.204-1.357,0c-0.37-0.204-0.494-0.612-0.494-1.122
						c-0.369,0.408-0.863,0.612-1.234,0.612C214.636,342.886,214.265,342.58,214.018,342.07z M216.239,342.376
						c1.729-1.632,3.826-6.732,5.801-12.546C218.831,335.236,216.239,340.132,216.239,342.376z M222.04,329.728
						c0.247-0.408,0.494-0.714,0.618-1.122c-0.124,0-0.124-0.102-0.247-0.102C222.287,329.014,222.164,329.422,222.04,329.728z
						 M218.091,343.396c2.469-0.816,7.159-4.488,12.219-8.874C224.509,338.092,219.325,341.458,218.091,343.396z M230.31,334.522
						c0.37-0.204,0.741-0.51,1.11-0.714c0-0.102-0.123-0.102-0.123-0.102C230.927,333.91,230.68,334.216,230.31,334.522z
						 M219.202,345.028c2.592,0.306,8.886-1.326,15.797-3.162C227.719,342.784,221.3,343.804,219.202,345.028z M234.999,341.866
						c0.371,0,0.864-0.102,1.234-0.204c0-0.102,0-0.102,0-0.204C235.739,341.662,235.37,341.764,234.999,341.866z M219.202,346.966
						c2.222,1.224,8.639,2.244,15.797,3.264C228.088,348.292,221.794,346.66,219.202,346.966z M234.876,350.23
						c0.37,0.102,0.741,0.204,1.11,0.306c0-0.102,0-0.102,0-0.102C235.617,350.332,235.246,350.23,234.876,350.23z M218.091,348.598
						c1.234,1.938,6.294,5.304,12.095,8.976C225.25,353.188,220.56,349.414,218.091,348.598z M230.186,357.574
						c0.247,0.204,0.494,0.408,0.618,0.612l0.123-0.102C230.804,357.88,230.433,357.676,230.186,357.574z M216.239,349.72
						c0,2.244,2.592,7.14,5.678,12.546C219.942,356.452,217.968,351.352,216.239,349.72z M221.917,362.266
						c0.123,0.204,0.123,0.509,0.247,0.714h0.123C222.164,362.674,222.04,362.47,221.917,362.266z M214.018,349.924
						c-1.234,1.938-1.728,7.344-1.975,13.362C213.401,357.37,214.636,352.066,214.018,349.924z M211.92,363.184
						c-0.124,0.205-0.124,0.51-0.124,0.715h0.124C211.92,363.693,211.92,363.49,211.92,363.184z M211.796,349.21
						c-2.221,1.224-5.677,5.814-9.256,11.016C207.229,355.636,211.18,351.352,211.796,349.21z M202.54,360.226
						c-0.247,0.204-0.371,0.408-0.617,0.612c0,0,0.124,0,0.124,0.102C202.293,360.736,202.416,360.532,202.54,360.226z
						 M210.315,347.782c-2.593,0.204-8.269,2.958-14.44,6.222C202.663,351.658,208.588,349.414,210.315,347.782z M195.875,354.004
						c-0.37,0.102-0.616,0.204-0.987,0.306c0,0,0,0.102,0.124,0.102C195.382,354.31,195.628,354.208,195.875,354.004z
						 M209.822,345.946c-2.469-0.816-9.01-0.51-16.292,0C200.812,346.456,207.354,346.762,209.822,345.946z M193.53,345.946
						c-0.369,0-0.863-0.102-1.234-0.102c0,0.102,0,0.102,0,0.204C192.79,346.048,193.161,345.946,193.53,345.946z M210.315,344.212
						c-1.728-1.632-7.652-3.876-14.316-6.324C202.169,341.152,207.723,343.906,210.315,344.212z M195.999,337.888
						c-0.371-0.204-0.74-0.408-1.111-0.612c0,0.102-0.123,0.102-0.123,0.204C195.135,337.582,195.505,337.786,195.999,337.888z
						 M211.92,342.784c-0.618-2.142-4.566-6.426-9.257-11.118C206.242,336.97,209.698,341.56,211.92,342.784z M202.663,331.666
						c-0.247-0.306-0.494-0.714-0.74-1.02c-0.123,0-0.123,0.102-0.247,0.102C202.047,331.054,202.293,331.36,202.663,331.666z"/>
					
						<radialGradient id="SvgjsPath3453_1_" cx="-555.7378" cy="-110.5908" r="59.7533" gradientTransform="matrix(0.3669 0.0027 -0.0041 0.3032 417.701 380.7687)" gradientUnits="userSpaceOnUse">
						<stop  offset="0" style="stop-color:#FFFFFF"/>
						<stop  offset="1" style="stop-color:#FFFFFF;stop-opacity:0"/>
					</radialGradient>
					<path id="SvgjsPath3453" opacity="0.4" fill="url(#SvgjsPath3453_1_)" enable-background="new    " d="M217.844,327.586
						c-0.123,0-0.123,0-0.247,0c0,0.408,0,0.816-0.123,1.224C217.597,328.402,217.721,327.994,217.844,327.586z M217.474,328.81
						c-1.604,5.916-2.962,11.118-2.345,13.362C216.363,340.132,216.98,334.828,217.474,328.81z M215.129,342.07
						c-0.371,0.408-0.617,0.714-0.987,0.816c-0.371,0-0.74-0.204-1.234-0.612c0,0.51-0.124,0.918-0.494,1.122
						s-0.864,0.102-1.356-0.102c0.245,0.51,0.369,0.918,0.123,1.122c-0.247,0.306-0.617,0.408-1.234,0.51
						c0.493,0.306,0.864,0.612,0.864,0.918c0,0.306-0.371,0.612-0.864,0.918c0.617,0.102,1.111,0.204,1.234,0.51
						c0.122,0.306,0.122,0.714-0.247,1.122c0.616-0.204,1.11-0.204,1.357,0c0.37,0.204,0.493,0.612,0.37,1.122
						c0.494-0.408,0.864-0.612,1.234-0.51c0.37,0,0.741,0.306,0.987,0.816c0.123-0.51,0.37-0.816,0.741-0.918
						c0.369-0.102,0.863,0,1.357,0.306c-0.123-0.51-0.123-0.918,0.124-1.122c0.245-0.204,0.739-0.306,1.356-0.204
						c-0.37-0.408-0.617-0.816-0.493-1.122c0.123-0.306,0.493-0.51,1.11-0.714c-0.617-0.204-0.987-0.408-1.11-0.816
						c-0.124-0.306,0.123-0.714,0.616-1.02c-0.616,0-1.11,0-1.357-0.306c-0.246-0.204-0.246-0.612-0.122-1.122
						c-0.494,0.306-0.988,0.408-1.358,0.306C215.499,342.988,215.252,342.58,215.129,342.07z M217.227,342.784
						c2.223-1.224,5.802-5.712,9.504-10.914C222.04,336.46,217.844,340.642,217.227,342.784z M226.73,331.87
						c0.37-0.306,0.617-0.612,0.988-0.918c-0.124,0-0.124-0.102-0.247-0.102C227.225,331.156,226.978,331.564,226.73,331.87z
						 M218.708,344.212c2.592-0.204,8.393-2.856,14.564-6.018C226.484,340.438,220.437,342.58,218.708,344.212z M233.272,338.296
						c0.493-0.102,0.863-0.306,1.356-0.408c0-0.102-0.122-0.102-0.122-0.204C234.013,337.888,233.642,338.092,233.272,338.296z
						 M219.202,346.048c2.469,0.816,9.01,0.714,16.291,0.306C228.212,345.742,221.671,345.334,219.202,346.048z M235.493,346.354
						c0.37,0,0.864,0.102,1.234,0.102c0-0.102,0-0.102,0-0.204C236.233,346.354,235.863,346.354,235.493,346.354z M218.584,347.884
						c1.729,1.734,7.529,4.08,14.194,6.528C226.73,351.046,221.177,348.19,218.584,347.884z M232.778,354.412
						c0.247,0.204,0.617,0.306,0.987,0.51l0.123-0.102C233.519,354.616,233.148,354.514,232.778,354.412z M216.98,349.21
						c0.616,2.142,4.443,6.528,8.886,11.22C222.534,355.228,219.202,350.536,216.98,349.21z M225.99,360.43
						c0.123,0.204,0.247,0.51,0.494,0.714c0,0,0.123,0,0.123-0.102C226.36,360.94,226.113,360.736,225.99,360.43z M214.882,349.822
						c-0.74,2.142,0.247,7.446,1.604,13.362C216.363,357.268,216.116,351.862,214.882,349.822z M216.486,363.286
						c0,0.204,0,0.51,0,0.714h0.124C216.61,363.693,216.486,363.49,216.486,363.286z M212.66,349.618
						c-1.851,1.632-3.949,6.732-6.171,12.444C209.822,356.656,212.536,351.76,212.66,349.618z M206.489,362.062
						c-0.123,0.204-0.247,0.408-0.37,0.612h0.123C206.366,362.47,206.489,362.266,206.489,362.062z M210.81,348.496
						c-2.469,0.714-7.282,4.386-12.466,8.67C204.269,353.698,209.575,350.434,210.81,348.496z M198.344,357.166
						c-0.247,0.102-0.494,0.306-0.74,0.408l0.123,0.102C197.974,357.574,198.221,357.37,198.344,357.166z M209.822,346.864
						c-2.593-0.306-8.887,1.122-15.921,2.958C201.182,348.904,207.601,347.986,209.822,346.864z M193.901,349.72
						c-0.371,0-0.74,0.102-0.987,0.102v0.102C193.283,349.924,193.53,349.822,193.901,349.72z M209.822,344.926
						c-2.1-1.326-8.517-2.448-15.674-3.468C201.059,343.498,207.229,345.13,209.822,344.926z M194.148,341.458
						c-0.371-0.102-0.741-0.204-1.111-0.306c0,0.102,0,0.102,0,0.204C193.407,341.356,193.777,341.356,194.148,341.458z
						 M210.933,343.294c-1.234-1.938-6.171-5.406-11.972-9.18C203.897,338.602,208.464,342.478,210.933,343.294z M199.084,334.216
						c-0.247-0.306-0.616-0.51-0.987-0.816l-0.123,0.102C198.344,333.706,198.715,333.91,199.084,334.216z M212.907,342.274
						c0.123-2.244-2.469-7.14-5.431-12.648C209.328,335.44,211.18,340.54,212.907,342.274z M207.477,329.626
						c-0.123-0.408-0.247-0.816-0.37-1.224c-0.124,0-0.124,0-0.247,0.102C206.982,328.81,207.229,329.218,207.477,329.626z"/>
					<path id="SvgjsPath3457" fill="#7B5C33" d="M223.274,345.64c0,3.978-3.949,7.242-8.763,7.242s-8.764-3.264-8.764-7.242
						s3.95-7.242,8.764-7.242S223.274,341.662,223.274,345.64z"/>
					<path id="SvgjsPath3458" opacity="0.9" enable-background="new    " d="M223.274,345.64c0,3.978-3.949,7.242-8.763,7.242
						s-8.764-3.264-8.764-7.242s3.95-7.242,8.764-7.242S223.274,341.662,223.274,345.64z"/>
					
						<linearGradient id="SvgjsPath3459_1_" gradientUnits="userSpaceOnUse" x1="114.4795" y1="214.8823" x2="115.5032" y2="213.6618" gradientTransform="matrix(3.06 0 0 3.06 -147.9056 -298.6301)">
						<stop  offset="0" style="stop-color:#FFFFFF"/>
						<stop  offset="1" style="stop-color:#FFFFFF;stop-opacity:0"/>
					</linearGradient>
					<path id="SvgjsPath3459" opacity="0.5" fill="url(#SvgjsPath3459_1_)" enable-background="new    " d="M202.416,354.004
						c1.605-0.918,3.95-0.51,5.061,0.816c1.111,1.326,0.617,3.264-0.987,4.182s-3.949,0.51-5.061-0.816
						C200.194,356.86,200.688,354.922,202.416,354.004L202.416,354.004z"/>
					
						<linearGradient id="SvgjsPath3463_1_" gradientUnits="userSpaceOnUse" x1="119.855" y1="208.772" x2="119.0184" y2="209.7694" gradientTransform="matrix(3.06 0 0 3.06 -147.9056 -298.6301)">
						<stop  offset="0" style="stop-color:#FFFFFF"/>
						<stop  offset="1" style="stop-color:#FFFFFF;stop-opacity:0"/>
					</linearGradient>
					<path id="SvgjsPath3463" opacity="0.5" fill="url(#SvgjsPath3463_1_)" enable-background="new    " d="M221.424,344.62
						c-0.987,1.122-3.58,1.02-5.925-0.306s-3.456-3.264-2.592-4.488l0,0c0.987-1.122,3.579-1.02,5.924,0.306
						C221.177,341.458,222.287,343.498,221.424,344.62L221.424,344.62z"/>
					
						<linearGradient id="SvgjsPath3467_1_" gradientUnits="userSpaceOnUse" x1="122.7197" y1="206.2163" x2="120.8053" y2="208.4978" gradientTransform="matrix(3.06 0 0 3.06 -147.9056 -298.6301)">
						<stop  offset="0" style="stop-color:#FFFFFF"/>
						<stop  offset="1" style="stop-color:#FFFFFF;stop-opacity:0"/>
					</linearGradient>
					<path id="SvgjsPath3467" opacity="0.75" fill="url(#SvgjsPath3467_1_)" enable-background="new    " d="M231.914,341.56
						c-2.098,2.652-7.529,2.856-12.096,0.408c-4.566-2.448-6.664-6.63-4.442-9.282c2.098-2.652,7.529-2.856,12.096-0.408
						C232.038,334.726,234.136,338.908,231.914,341.56L231.914,341.56z"/>
				</g>
			</g>
		</g>
		<g id="svga-group-eyesfront-left">
			<path id="SvgjsPath3415" fill="#CDA184" d="M143.98,348.7c0,42.228,46.899,64.26,66.646,64.26
				c36.779,0,66.647-22.032,66.647-64.26c0-42.228-29.868-76.5-66.647-76.5C173.849,272.2,143.98,306.472,143.98,348.7z
				 M163.604,336.358c4.566-3.57,33.694-8.16,50.479-6.324c26.535,2.856,48.134,22.338,48.134,22.338s-17.896,9.384-50.355,10.914
				C190.387,364.102,168.911,352.678,163.604,336.358z"/>
			
				<radialGradient id="SvgjsPath3416_1_" cx="125.4419" cy="136.5078" r="16.9291" fx="139.102" fy="136.1414" gradientTransform="matrix(3.6656 0.4318 0.4017 -2.328 -288.9985 598.4689)" gradientUnits="userSpaceOnUse">
				<stop  offset="0" style="stop-color:#BE8A67"/>
				<stop  offset="0.7" style="stop-color:#BE8A67;stop-opacity:0.3"/>
				<stop  offset="1" style="stop-color:#CDA184;stop-opacity:0"/>
			</radialGradient>
			<path id="SvgjsPath3416" fill="url(#SvgjsPath3416_1_)" d="M213.713,375.016c34.805,6.834,68.375-4.896,74.792-26.214
				c6.419-21.318-16.537-44.064-51.466-50.898c-34.805-6.834-68.375,4.896-74.792,26.214
				C155.829,345.436,178.908,368.182,213.713,375.016z M163.604,336.358c4.566-3.57,33.694-8.16,50.479-6.324
				c26.535,2.856,48.134,22.338,48.134,22.338s-17.896,9.384-50.355,10.914C190.387,364.102,168.911,352.678,163.604,336.358z"/>
			
				<radialGradient id="SvgjsPath3421_1_" cx="68.293" cy="231.3188" r="29.5104" gradientTransform="matrix(3.827 0 0 3.1628 -60.6225 -304.6079)" gradientUnits="userSpaceOnUse">
				<stop  offset="0.95" style="stop-color:#000000;stop-opacity:0"/>
				<stop  offset="1" style="stop-color:#000000;stop-opacity:0.2"/>
			</radialGradient>
			<path id="SvgjsPath3421" fill="url(#SvgjsPath3421_1_)" d="M163.604,336.358c4.566-3.57,33.694-8.16,50.479-6.324
				c26.535,2.856,48.134,22.338,48.134,22.338s-17.896,9.384-50.355,10.914C190.387,364.102,168.911,352.678,163.604,336.358z"/>
			<path id="SvgjsPath3425" fill="#9F6037" d="M260.611,340.948c-24.066-13.056-15.057-9.486-60.104-20.502
				c12.342,1.53,35.422,6.324,43.32,10.2C248.146,332.584,256.91,338.296,260.611,340.948z"/>
			<path id="SvgjsPath3426" d="M157.804,336.154c7.157,15.096,36.039,42.738,108.486,16.932
				c-11.479-10.302-40.729-27.846-67.265-27.744C176.81,325.444,164.345,331.156,157.804,336.154z M163.604,336.664
				c4.566-3.468,33.694-7.854,50.479-6.12c26.535,2.754,48.134,21.522,48.134,21.522s-17.896,9.078-50.355,10.506
				C190.387,363.49,168.911,352.474,163.604,336.664z"/>
		</g>
	</g>
</g>
<g id="svga-group-eyes-right-move" transform="matrix(1,0,0,1,0,0)">
	<g id="svga-group-eyes-right" transform="matrix(1,0,0,1,0,0)">
		<g id="svga-group-eyesback-right">
			
				<radialGradient id="SvgjsPath3398_1_" cx="126.3813" cy="210.9414" r="15.179" gradientTransform="matrix(3.3871 0.1466 -0.1936 3.0557 20.7162 -317.7615)" gradientUnits="userSpaceOnUse">
				<stop  offset="0" style="stop-color:#FFFFFF"/>
				<stop  offset="0.544" style="stop-color:#FDFEFE"/>
				<stop  offset="0.74" style="stop-color:#F6F8F9"/>
				<stop  offset="0.879" style="stop-color:#EAEFF2"/>
				<stop  offset="0.992" style="stop-color:#D9E3E8"/>
				<stop  offset="1" style="stop-color:#D8E2E7"/>
			</radialGradient>
			<path id="SvgjsPath3398" fill="url(#SvgjsPath3398_1_)" d="M455.122,336.358c-4.565-3.57-33.693-8.16-50.479-6.324
				c-26.535,2.856-48.134,22.338-48.134,22.338s17.896,9.384,50.354,10.914C428.341,364.102,449.815,352.678,455.122,336.358z"/>
		</g>
		<g id="svga-group-eyesiriswrapper-right" transform="matrix(1,0,0,1,-0.25,0)">
			<g id="svga-group-eyesiriscontrol-right" transform="matrix(1,0,0,1,0,0)">
				<g id="svga-group-eyesiris-right" transform="matrix(1,0,0,1,0,0)">
					<path id="SvgjsPath3471" fill="#7B5C33" d="M427.911,345.64c0,10.098-9.997,18.36-22.216,18.36
						c-12.218,0-22.216-8.262-22.216-18.36l0,0c0-10.098,9.998-18.36,22.216-18.36C417.914,327.28,427.911,335.542,427.911,345.64
						L427.911,345.64z"/>
					
						<radialGradient id="SvgjsPath3472_1_" cx="-622.2847" cy="-115.293" r="59.7532" gradientTransform="matrix(0.3554 -0.0759 0.0907 0.2941 637.0642 332.3806)" gradientUnits="userSpaceOnUse">
						<stop  offset="0" style="stop-color:#FFFFFF"/>
						<stop  offset="1" style="stop-color:#FFFFFF;stop-opacity:0"/>
					</radialGradient>
					<path id="SvgjsPath3472" opacity="0.7" fill="url(#SvgjsPath3472_1_)" enable-background="new    " d="M403.227,327.484
						c-0.122,0-0.122,0-0.247,0c0.125,0.408,0.247,0.816,0.371,1.224C403.227,328.3,403.227,327.892,403.227,327.484z
						 M403.227,328.708c0.247,6.018,0.741,11.424,1.975,13.362C405.819,339.928,404.708,334.624,403.227,328.708z M405.201,342.07
						c-0.122,0.51-0.369,0.816-0.739,1.02c-0.371,0.102-0.864,0-1.357-0.306c0.122,0.51,0.122,0.918-0.125,1.122
						c-0.245,0.204-0.739,0.306-1.356,0.204c0.371,0.408,0.617,0.714,0.493,1.122c-0.122,0.306-0.493,0.51-1.11,0.714
						c0.617,0.204,0.988,0.408,1.11,0.714c0.124,0.306-0.122,0.714-0.493,1.122c0.617-0.102,1.111,0,1.356,0.204
						c0.247,0.204,0.247,0.612,0.125,1.122c0.493-0.306,0.986-0.408,1.357-0.306c0.37,0.102,0.617,0.51,0.739,1.02
						c0.247-0.51,0.618-0.714,0.988-0.816c0.37,0,0.864,0.204,1.233,0.612c0-0.51,0.125-0.918,0.494-1.122
						c0.371-0.204,0.863-0.102,1.357,0c-0.247-0.51-0.369-0.816-0.247-1.122c0.247-0.306,0.617-0.408,1.235-0.51
						c-0.494-0.306-0.864-0.612-0.864-0.918c0-0.306,0.37-0.612,0.864-0.918c-0.618-0.102-1.11-0.204-1.235-0.51
						c-0.247-0.306-0.122-0.714,0.247-1.122c-0.616,0.204-1.11,0.204-1.357,0s-0.494-0.612-0.494-1.122
						c-0.369,0.408-0.863,0.612-1.233,0.612C405.819,342.886,405.448,342.58,405.201,342.07z M407.423,342.376
						c1.729-1.632,3.826-6.732,5.801-12.546C410.016,335.236,407.423,340.132,407.423,342.376z M413.224,329.728
						c0.247-0.408,0.494-0.714,0.619-1.122c-0.125,0-0.125-0.102-0.247-0.102C413.471,329.014,413.349,329.422,413.224,329.728z
						 M409.274,343.396c2.469-0.816,7.159-4.488,12.219-8.874C415.692,338.092,410.509,341.458,409.274,343.396z M421.493,334.522
						c0.371-0.204,0.741-0.51,1.11-0.714c0-0.102-0.122-0.102-0.122-0.102C422.11,333.91,421.864,334.216,421.493,334.522z
						 M410.386,345.028c2.591,0.306,8.886-1.326,15.797-3.162C418.902,342.784,412.484,343.804,410.386,345.028z M426.183,341.866
						c0.371,0,0.865-0.102,1.235-0.204c0-0.102,0-0.102,0-0.204C426.924,341.662,426.554,341.764,426.183,341.866z M410.386,346.966
						c2.222,1.224,8.639,2.244,15.797,3.264C419.149,348.292,412.977,346.66,410.386,346.966z M426.061,350.23
						c0.369,0.102,0.74,0.204,1.11,0.306c0-0.102,0-0.102,0-0.102C426.801,350.332,426.43,350.23,426.061,350.23z M409.274,348.598
						c1.234,1.938,6.295,5.304,12.096,8.976C416.434,353.188,411.743,349.414,409.274,348.598z M421.37,357.574
						c0.247,0.204,0.494,0.408,0.617,0.612l0.123-0.102C421.987,357.88,421.617,357.676,421.37,357.574z M407.423,349.72
						c0,2.244,2.593,7.14,5.679,12.546C411.127,356.452,409.152,351.352,407.423,349.72z M413.102,362.266
						c0.122,0.204,0.122,0.509,0.247,0.714h0.122C413.349,362.674,413.224,362.47,413.102,362.266z M405.201,349.924
						c-1.233,1.938-1.728,7.344-1.975,13.362C404.585,357.37,405.819,352.066,405.201,349.924z M403.104,363.184
						c-0.125,0.205-0.125,0.51-0.125,0.715h0.125C403.104,363.693,403.104,363.49,403.104,363.184z M402.979,349.21
						c-2.221,1.224-5.676,5.814-9.255,11.016C398.414,355.636,402.363,351.352,402.979,349.21z M393.725,360.226
						c-0.247,0.204-0.371,0.408-0.618,0.612c0,0,0.124,0,0.124,0.102C393.478,360.736,393.601,360.532,393.725,360.226z
						 M401.5,347.782c-2.593,0.204-8.27,2.958-14.441,6.222C393.848,351.658,399.771,349.414,401.5,347.782z M387.059,354.004
						c-0.369,0.102-0.616,0.204-0.985,0.306c0,0,0,0.102,0.122,0.102C386.565,354.31,386.812,354.208,387.059,354.004z
						 M401.006,345.946c-2.469-0.816-9.01-0.51-16.291,0C391.996,346.456,398.537,346.762,401.006,345.946z M384.715,345.946
						c-0.371,0-0.863-0.102-1.235-0.102c0,0.102,0,0.102,0,0.204C383.974,346.048,384.344,345.946,384.715,345.946z M401.5,344.212
						c-1.729-1.632-7.652-3.876-14.316-6.324C393.354,341.152,398.907,343.906,401.5,344.212z M387.184,337.888
						c-0.372-0.204-0.741-0.408-1.11-0.612c0,0.102-0.125,0.102-0.125,0.204C386.318,337.582,386.689,337.786,387.184,337.888z
						 M403.104,342.784c-0.617-2.142-4.567-6.426-9.257-11.118C397.426,336.97,400.883,341.56,403.104,342.784z M393.848,331.666
						c-0.247-0.306-0.494-0.714-0.741-1.02c-0.123,0-0.123,0.102-0.247,0.102C393.23,331.054,393.478,331.36,393.848,331.666z"/>
					
						<radialGradient id="SvgjsPath3476_1_" cx="-554.7358" cy="-110.5928" r="59.7557" gradientTransform="matrix(0.3669 0.0027 -0.0041 0.3032 608.5146 380.7664)" gradientUnits="userSpaceOnUse">
						<stop  offset="0" style="stop-color:#FFFFFF"/>
						<stop  offset="1" style="stop-color:#FFFFFF;stop-opacity:0"/>
					</radialGradient>
					<path id="SvgjsPath3476" opacity="0.4" fill="url(#SvgjsPath3476_1_)" enable-background="new    " d="M409.027,327.586
						c-0.122,0-0.122,0-0.247,0c0,0.408,0,0.816-0.122,1.224C408.78,328.402,408.905,327.994,409.027,327.586z M408.658,328.81
						c-1.604,5.916-2.963,11.118-2.346,13.362C407.548,340.132,408.164,334.828,408.658,328.81z M406.312,342.07
						c-0.37,0.408-0.617,0.714-0.986,0.816c-0.371,0-0.741-0.204-1.235-0.612c0,0.51-0.123,0.918-0.493,1.122
						c-0.371,0.204-0.863,0.102-1.357-0.102c0.247,0.51,0.37,0.918,0.123,1.122c-0.247,0.306-0.616,0.408-1.234,0.51
						c0.494,0.306,0.865,0.612,0.865,0.918c0,0.306-0.371,0.612-0.865,0.918c0.618,0.102,1.111,0.204,1.234,0.51
						c0.124,0.306,0.124,0.714-0.247,1.122c0.618-0.204,1.11-0.204,1.357,0c0.371,0.204,0.494,0.612,0.371,1.122
						c0.493-0.408,0.863-0.612,1.234-0.51c0.369,0,0.74,0.306,0.987,0.816c0.123-0.51,0.37-0.816,0.74-0.918s0.863,0,1.357,0.306
						c-0.123-0.51-0.123-0.918,0.124-1.122c0.245-0.204,0.739-0.306,1.356-0.204c-0.37-0.408-0.617-0.816-0.492-1.122
						c0.122-0.306,0.492-0.51,1.11-0.714c-0.618-0.204-0.988-0.408-1.11-0.816c-0.125-0.306,0.122-0.714,0.616-1.02
						c-0.616,0-1.11,0-1.357-0.306c-0.247-0.204-0.247-0.612-0.123-1.122c-0.493,0.306-0.987,0.408-1.358,0.306
						C406.684,342.988,406.437,342.58,406.312,342.07z M408.411,342.784c2.222-1.224,5.801-5.712,9.503-10.914
						C413.224,336.46,409.027,340.642,408.411,342.784z M417.914,331.87c0.371-0.306,0.618-0.612,0.988-0.918
						c-0.125,0-0.125-0.102-0.247-0.102C418.408,331.156,418.161,331.564,417.914,331.87z M409.892,344.212
						c2.593-0.204,8.27-2.856,14.564-6.018C417.667,340.438,411.62,342.58,409.892,344.212z M424.456,338.296
						c0.369-0.102,0.863-0.306,1.357-0.408c0-0.102-0.123-0.102-0.123-0.204C425.197,337.888,424.825,338.092,424.456,338.296z
						 M410.386,346.048c2.469,0.816,9.011,0.714,16.291,0.306C419.396,345.742,412.854,345.334,410.386,346.048z M426.677,346.354
						c0.37,0,0.864,0.102,1.234,0.102c0-0.102,0-0.102,0-0.204C427.418,346.354,427.047,346.354,426.677,346.354z M409.769,347.884
						c1.728,1.734,7.528,4.08,14.193,6.528C417.914,351.046,412.36,348.19,409.769,347.884z M423.962,354.412
						c0.247,0.204,0.617,0.306,0.988,0.51l0.122-0.102C424.703,354.616,424.332,354.514,423.962,354.412z M408.164,349.21
						c0.616,2.142,4.443,6.528,8.886,11.22C413.718,355.228,410.386,350.536,408.164,349.21z M417.175,360.43
						c0.122,0.204,0.247,0.51,0.492,0.714c0,0,0.124,0,0.124-0.102C417.544,360.94,417.297,360.736,417.175,360.43z
						 M406.066,349.822c-0.74,2.142,0.246,7.446,1.604,13.362C407.548,357.268,407.301,351.862,406.066,349.822z M407.67,363.286
						c0,0.204,0,0.51,0,0.714h0.125C407.795,363.693,407.67,363.49,407.67,363.286z M403.845,349.618
						c-1.851,1.632-3.95,6.732-6.172,12.444C401.006,356.656,403.721,351.76,403.845,349.618z M397.673,362.062
						c-0.123,0.204-0.247,0.408-0.369,0.612h0.122C397.55,362.47,397.673,362.266,397.673,362.062z M401.994,348.496
						c-2.469,0.714-7.282,4.386-12.467,8.67C395.452,353.698,400.759,350.434,401.994,348.496z M389.527,357.166
						c-0.247,0.102-0.493,0.306-0.74,0.408l0.124,0.102C389.158,357.574,389.405,357.37,389.527,357.166z M401.006,346.864
						c-2.592-0.306-8.887,1.122-15.921,2.958C392.366,348.904,398.784,347.986,401.006,346.864z M385.085,349.72
						c-0.37,0-0.741,0.102-0.987,0.102v0.102C384.468,349.924,384.715,349.822,385.085,349.72z M401.006,344.926
						c-2.099-1.326-8.516-2.448-15.674-3.468C392.243,343.498,398.414,345.13,401.006,344.926z M385.332,341.458
						c-0.37-0.102-0.741-0.204-1.111-0.306c0,0.102,0,0.102,0,0.204C384.591,341.356,384.962,341.356,385.332,341.458z
						 M402.116,343.294c-1.233-1.938-6.17-5.406-11.971-9.18C395.081,338.602,399.647,342.478,402.116,343.294z M390.269,334.216
						c-0.247-0.306-0.617-0.51-0.988-0.816l-0.122,0.102C389.527,333.706,389.898,333.91,390.269,334.216z M404.091,342.274
						c0.124-2.244-2.468-7.14-5.431-12.648C400.513,335.44,402.363,340.54,404.091,342.274z M398.66,329.626
						c-0.123-0.408-0.246-0.816-0.369-1.224c-0.124,0-0.124,0-0.247,0.102C398.167,328.81,398.414,329.218,398.66,329.626z"/>
					<path id="SvgjsPath3480" fill="#7B5C33" d="M414.459,345.64c0,3.978-3.95,7.242-8.764,7.242c-4.812,0-8.762-3.264-8.762-7.242
						s3.949-7.242,8.762-7.242C410.509,338.398,414.459,341.662,414.459,345.64z"/>
					<path id="SvgjsPath3481" opacity="0.9" enable-background="new    " d="M414.459,345.64c0,3.978-3.95,7.242-8.764,7.242
						c-4.812,0-8.762-3.264-8.762-7.242s3.949-7.242,8.762-7.242C410.509,338.398,414.459,341.662,414.459,345.64z"/>
					
						<linearGradient id="SvgjsPath3482_1_" gradientUnits="userSpaceOnUse" x1="126.2939" y1="214.8813" x2="127.3176" y2="213.6609" gradientTransform="matrix(3.06 0 0 3.06 7.1249 -298.6301)">
						<stop  offset="0" style="stop-color:#FFFFFF"/>
						<stop  offset="1" style="stop-color:#FFFFFF;stop-opacity:0"/>
					</linearGradient>
					<path id="SvgjsPath3482" opacity="0.5" fill="url(#SvgjsPath3482_1_)" enable-background="new    " d="M393.601,354.004
						c1.604-0.918,3.949-0.51,5.06,0.816c1.111,1.326,0.618,3.264-0.987,4.182c-1.604,0.918-3.948,0.51-5.06-0.816
						C391.38,356.86,391.872,354.922,393.601,354.004L393.601,354.004z"/>
					
						<linearGradient id="SvgjsPath3486_1_" gradientUnits="userSpaceOnUse" x1="131.6689" y1="208.7715" x2="130.8315" y2="209.7699" gradientTransform="matrix(3.06 0 0 3.06 7.1249 -298.6301)">
						<stop  offset="0" style="stop-color:#FFFFFF"/>
						<stop  offset="1" style="stop-color:#FFFFFF;stop-opacity:0"/>
					</linearGradient>
					<path id="SvgjsPath3486" opacity="0.5" fill="url(#SvgjsPath3486_1_)" enable-background="new    " d="M412.607,344.62
						c-0.986,1.122-3.58,1.02-5.924-0.306c-2.346-1.326-3.579-3.264-2.593-4.488l0,0c0.988-1.122,3.579-1.02,5.925,0.306
						C412.36,341.458,413.471,343.498,412.607,344.62L412.607,344.62z"/>
					
						<linearGradient id="SvgjsPath3490_1_" gradientUnits="userSpaceOnUse" x1="134.5562" y1="206.2383" x2="132.6441" y2="208.517" gradientTransform="matrix(3.06 0 0 3.06 7.1249 -298.6301)">
						<stop  offset="0" style="stop-color:#FFFFFF"/>
						<stop  offset="1" style="stop-color:#FFFFFF;stop-opacity:0"/>
					</linearGradient>
					<path id="SvgjsPath3490" opacity="0.75" fill="url(#SvgjsPath3490_1_)" enable-background="new    " d="M423.222,341.56
						c-2.099,2.652-7.529,2.856-12.095,0.408c-4.567-2.448-6.665-6.63-4.443-9.282c2.097-2.652,7.528-2.856,12.094-0.408
						C423.222,334.726,425.319,338.908,423.222,341.56L423.222,341.56z"/>
				</g>
			</g>
		</g>
		<g id="svga-group-eyesfront-right">
			<path id="SvgjsPath3436" fill="#CDA184" d="M408.1,272.2c-36.78,0-66.646,34.272-66.646,76.5c0,42.228,29.866,64.26,66.646,64.26
				c26.658,0,66.647-22.032,66.647-64.26C474.747,306.472,444.878,272.2,408.1,272.2z M406.864,363.184
				c-32.459-1.428-50.354-10.914-50.354-10.914s21.599-19.38,48.134-22.338c16.785-1.836,45.913,2.754,50.479,6.324
				C449.815,352.678,428.341,364.102,406.864,363.184z"/>
			
				<radialGradient id="SvgjsPath3437_1_" cx="119.4561" cy="135.4648" r="16.9134" fx="133.1036" fy="135.0989" gradientTransform="matrix(-3.6656 0.4318 -0.4017 -2.328 885.2524 598.6427)" gradientUnits="userSpaceOnUse">
				<stop  offset="0" style="stop-color:#BE8A67"/>
				<stop  offset="0.7" style="stop-color:#BE8A67;stop-opacity:0.3"/>
				<stop  offset="1" style="stop-color:#CDA184;stop-opacity:0"/>
			</radialGradient>
			<path id="SvgjsPath3437" fill="url(#SvgjsPath3437_1_)" d="M456.357,324.118c-6.419-21.318-39.865-33.048-74.794-26.214
				c-34.804,6.834-57.883,29.58-51.466,50.898c6.419,21.318,39.864,33.048,74.793,26.214
				C439.818,368.182,462.898,345.436,456.357,324.118z M406.864,363.184c-32.459-1.428-50.354-10.914-50.354-10.914
				s21.599-19.38,48.134-22.338c16.785-1.836,45.913,2.754,50.479,6.324C449.815,352.678,428.341,364.102,406.864,363.184z"/>
			
				<radialGradient id="SvgjsPath3442_1_" cx="63.1919" cy="231.3188" r="29.5104" gradientTransform="matrix(-3.827 0 0 3.1628 659.8256 -304.6079)" gradientUnits="userSpaceOnUse">
				<stop  offset="0.95" style="stop-color:#000000;stop-opacity:0"/>
				<stop  offset="1" style="stop-color:#000000;stop-opacity:0.2"/>
			</radialGradient>
			<path id="SvgjsPath3442" fill="url(#SvgjsPath3442_1_)" d="M455.122,336.358c-4.565-3.57-33.693-8.16-50.479-6.324
				c-26.535,2.856-48.134,22.338-48.134,22.338s17.896,9.384,50.354,10.914C428.341,364.102,449.815,352.678,455.122,336.358z"/>
			<path id="SvgjsPath3446" fill="#9F6037" d="M358.114,340.948c24.067-13.056,15.058-9.486,60.104-20.502
				c-12.34,1.53-35.42,6.324-43.319,10.2C370.58,332.584,361.817,338.296,358.114,340.948z"/>
			<path id="SvgjsPath3447" d="M419.824,325.342c-26.535-0.102-55.785,17.442-67.264,27.744
				c72.447,25.806,101.203-1.836,108.486-16.932C454.383,331.156,441.916,325.444,419.824,325.342z M406.864,362.572
				c-32.459-1.428-50.354-10.506-50.354-10.506s21.599-18.666,48.134-21.522c16.785-1.734,45.913,2.652,50.479,6.12
				C449.815,352.474,428.341,363.49,406.864,362.572z"/>
		</g>
	</g>
</g>
<g id="svga-group-facehighlight-single">
	
		<radialGradient id="SvgjsPath2906_1_" cx="98.3369" cy="240.5459" r="41" gradientTransform="matrix(3.7026 0 0 3.06 -53.9997 -298.6301)" gradientUnits="userSpaceOnUse">
		<stop  offset="0" style="stop-color:#DCBAA4;stop-opacity:0.5"/>
		<stop  offset="0.9" style="stop-color:#CDA184;stop-opacity:0"/>
	</radialGradient>
	<path id="SvgjsPath2906" fill="url(#SvgjsPath2906_1_)" d="M461.911,437.338c0.122,69.258-67.758,125.46-151.56,125.562
		c-83.804,0.102-151.932-55.896-152.055-125.154s67.759-125.664,151.561-125.766S461.786,368.08,461.911,437.338z"/>
	
		<radialGradient id="SvgjsPath2910_1_" cx="98.3369" cy="180.5459" r="36.9988" gradientTransform="matrix(3.7026 0 0 3.06 -53.9997 -298.6301)" gradientUnits="userSpaceOnUse">
		<stop  offset="0" style="stop-color:#DCBAA4;stop-opacity:0.5"/>
		<stop  offset="0.9" style="stop-color:#CDA184;stop-opacity:0"/>
	</radialGradient>
	<path id="SvgjsPath2910" fill="url(#SvgjsPath2910_1_)" d="M448.951,253.84c0,63.342-62.203,114.75-138.847,114.75
		c-76.645,0-138.849-51.408-138.849-114.75c0-63.342,62.204-114.75,138.849-114.75C386.748,139.09,448.951,190.498,448.951,253.84z"
		/>
</g>
<g id="svga-group-eyebrows-left-move" transform="matrix(1,0,0,1,0,0)">
	<g id="svga-group-eyebrows-left-rotate" transform="matrix(1,0,0,1,0,0)">
		<g id="svga-group-eyebrows-left" transform="matrix(1,0,0,1,0,0)">
			<path id="SvgjsPath3672" fill="#2A232B" d="M159.778,307.288c59.735-5.202,70.103,5.304,102.068,15.912
				c1.728,0.612,5.801,1.224,6.912-0.306c2.962-3.978-9.011-11.22-14.193-13.158C220.747,296.884,176.687,297.496,159.778,307.288z"
				/>
		</g>
	</g>
</g>
<g id="svga-group-eyebrows-right-move" transform="matrix(1,0,0,1,0,0)">
	<g id="svga-group-eyebrows-right-rotate" transform="matrix(1,0,0,1,0,0)">
		<g id="svga-group-eyebrows-right" transform="matrix(1,0,0,1,0,0)">
			<path id="SvgjsPath3673" fill="#2A232B" d="M460.43,307.288c-59.735-5.202-70.103,5.304-102.068,15.912
				c-1.729,0.612-5.801,1.224-6.911-0.306c-2.963-3.978,9.009-11.22,14.192-13.158C399.46,296.884,443.521,297.496,460.43,307.288z"
				/>
		</g>
	</g>
</g>
<path id="SvgjsPath3727_1_" fill="#56342E" d="M203.716,571.468c-21.846-11.628-49.738-34.578-59.982-46.002
	c-28.88-30.498-17.525-55.896-32.213-109.446c-7.405-23.357-19.87-57.629-21.352-66.198c3.455,0.408,21.846,2.448,24.932,2.856
	c4.566,29.274,44.431,50.082,51.219,110.263c6.048,37.842,28.634,56.1,65.66,74.97c15.673,8.058,45.911,21.114,53.069,6.936
	c5.801-11.424-4.195-34.68,19.995-38.454c5.061-0.714,15.797,0.918,19.871,8.568c6.54,12.342-3.456,36.006,17.896,36.006
	c22.215,0,60.352-23.562,71.089-31.62c41.84-28.458,28.14-62.832,47.394-100.571c22.215-40.597,29.126-35.395,38.753-66.3
	c2.593-0.204,22.216-2.55,24.932-2.856c-15.674,52.938-28.14,78.54-29.868,111.996c-2.961,49.775-21.104,65.382-61.709,96.084
	c-22.71,16.218-50.975,32.13-122.063,34.476C290.974,593.5,232.596,587.176,203.716,571.468z"/>
<g id="svga-group-nose-single-move" transform="matrix(1,0,0,1,0,0)">
	<g id="svga-group-nose-single" transform="matrix(1,0,0,1,0,0)">
		<path id="SvgjsPath3648" fill="#BE8A67" d="M277.15,442.03c-3.209,6.323,21.969,13.157,31.596,13.565
			c10.368,0.408,39.372-8.874,34.435-15.3c-5.185-6.731-24.561-0.918-32.954-0.918C301.958,439.378,281.594,433.564,277.15,442.03z"
			/>
		<path id="SvgjsPath3649" fill="#9F6037" d="M317.016,446.824c-0.864-2.346,6.911-4.896,9.873-5.202
			c4.074-0.51,12.466,2.448,11.725,4.896c-0.739,2.143-7.897-1.632-10.613-1.325C325.162,445.498,317.756,448.966,317.016,446.824z
			 M291.467,446.008c3.579,0,8.887,1.938,9.874,0.204c1.11-2.04-7.898-4.488-10.614-4.182c-2.222,0.204-10.12,3.978-9.01,5.609
			C282.828,449.17,286.776,446.008,291.467,446.008z"/>
		<path id="SvgjsPath3650" opacity="0.2" fill="#ECD5C7" enable-background="new    " d="M310.474,431.32
			c2.222,0,6.419-2.244,6.665-6.834c0.741-18.36-3.58-72.93-6.665-72.727c-2.838,0.204-8.392,53.958-7.157,72.727
			C303.562,429.076,307.883,431.32,310.474,431.32z"/>
	</g>
</g>
<g id="svga-group-beard-single" transform="matrix(1,0,0,1,0,0)">
	<path id="SvgjsPath3705" fill="#56342E" d="M278.632,613.288c-43.074-11.935-40.605-33.354-57.267-49.062
		c-17.28-15.81-51.22-35.189-34.805-53.651c29.497,13.26,39.248-18.564,49.984-29.683c18.884-17.85,47.146-22.949,73.312-15.504
		c31.966-8.363,64.425-0.407,81.704,25.908c9.996,15.096,19.007,28.662,42.086,19.38c12.959,14.79-5.801,29.886-22.462,43.351
		c-6.418,5.1-12.466,9.995-16.169,14.483c-13.081,14.586-12.096,33.252-53.193,44.88
		C326.52,617.878,295.787,618.592,278.632,613.288z M262.834,489.256c-17.032,5.508-25.055,18.054-21.476,33.559
		c3.826,16.728,19.131,30.294,34.064,30.294l0,0c19.87,0,30.855-23.154,34.804-39.168c25.302,99.042,122.804-18.564,31.474-28.152
		C334.789,485.074,283.075,482.422,262.834,489.256z"/>
	<path id="SvgjsPath3706" fill="#47251F" d="M186.437,510.166c10.738,24.378,38.014,33.558,47.641,48.144
		c12.342,18.462,19.747,35.395,40.852,54.265c-39.494-12.139-37.89-32.946-53.811-48.145c-8.146-7.548-13.206-10.812-21.722-18.054
		C186.684,535.564,175.205,522.61,186.437,510.166C192.855,513.022,181.747,510.778,186.437,510.166z M433.771,510.166
		c-10.736,24.378-38.014,33.558-47.64,48.144c-12.343,18.462-19.748,35.395-40.853,54.265
		c39.495-12.139,37.768-32.946,53.812-48.145c8.146-7.548,13.206-10.812,21.723-18.054
		C433.523,535.564,445.003,522.61,433.771,510.166C427.354,513.022,438.461,510.778,433.771,510.166z"/>
	<path id="SvgjsPath3707" fill="#280E09" d="M433.771,510.166c-23.202,9.486-32.089-4.284-42.086-19.482
		c-16.661-26.01-50.603-33.863-81.58-25.602c-24.932-7.14-53.812-3.162-73.806,15.605c-10.984,11.221-20.488,42.942-49.862,29.479
		c-11.354,12.444,0.247,25.397,12.836,36.21c8.64,7.242,13.576,10.608,21.722,18.054c16.539,15.708,14.194,37.23,57.391,49.164
		c18.019,5.508,48.998,4.284,63.562-0.102c41.222-11.73,40.358-30.601,53.317-45.084
		C408.964,552.394,452.406,530.974,433.771,510.166z M390.574,565.756c-8.393,9.486-13.823,25.092-25.919,32.437
		c-13.083,8.363-29.744,14.892-48.628,16.115c-0.246,0.103-11.971,0.204-17.524-0.51c-16.909-1.428-38.384-11.22-49.122-20.298
		c-10.614-10.812-12.218-21.318-25.547-33.762c-17.156-15.606-48.999-29.376-36.903-48.349c6.047,2.244,19.007,8.364,32.83-3.365
		c11.23-9.69,25.054-54.162,90.466-41.515c30.979-6.018,62.945,1.836,77.879,25.704c12.465,18.564,22.71,28.561,45.296,19.176
		C447.1,531.688,406.248,547.192,390.574,565.756z M372.184,494.968c-15.674-12.546-40.482-11.729-62.079-10.098
		c-34.312-2.652-70.228,0.306-72.202,29.172c-2.714,36.924,57.021,68.748,72.202,2.856c15.797,66.197,74.916,33.863,72.2-2.856
		c-0.369-4.998-1.728-8.262-1.728-8.262C379.095,501.904,376.257,498.028,372.184,494.968z M313.93,524.548
		c-1.851-4.794-3.209-9.384-3.825-12.24c-1.358,6.427-4.938,16.626-9.751,24.175c-31.349,49.878-92.318-29.173-37.396-46.92
		c20.24-6.937,72.076-4.183,78.618-3.469C426.613,495.07,345.649,602.578,313.93,524.548z"/>
</g>
<g id="svga-group-mustache-single-move" transform="matrix(1,0,0,1,0,0)">
	<g id="svga-group-mustache-single" transform="matrix(1,0,0,1,0,0)">
		<path id="SvgjsPath3606" fill="#56342E" d="M238.149,526.792c-29.127-36.516,6.048-67.014,38.878-67.014
			c12.096,0,20.981,4.998,33.199,5.1c11.479,0,22.216-4.794,33.695-4.59c23.449,0,54.181,16.116,48.503,41.004
			c-1.851,7.752-5.801,14.892-10.243,23.358c-10.737-42.229-34.558-32.845-81.334-34.681c-21.476-0.815-40.976-1.632-54.306,13.566
			C241.358,510.37,238.521,521.488,238.149,526.792"/>
		<path id="SvgjsPath3607" fill="#47251F" d="M364.286,463.96c25.177,16.932,26.535,32.64,19.993,47.124
			c-1.975-21.42-27.646-40.698-75.039-30.702c-47.394-12.342-71.954,9.69-74.299,33.252c-3.456-18.155,0.493-38.147,28.017-52.02
			c-27.894,7.14-50.851,34.17-24.562,66.198c0-4.284,2.715-16.627,8.516-23.971c14.688-16.83,36.902-13.974,61.464-13.158
			c36.162,1.938,62.821-8.466,73.56,34.477c0,0.204,0.122,0.408,0.246,0.714c0.245-0.51,0.617-1.122,0.986-1.836
			c0.124-0.306,0.37-0.612,0.494-0.918c3.58-6.937,7.528-13.974,9.257-21.624C396.991,482.932,381.688,469.978,364.286,463.96z"/>
		<path id="SvgjsPath3608" fill="#280E09" d="M344.044,459.982c-11.478-0.307-22.462,4.691-34.187,4.487
			c-9.01-0.204-17.773-3.264-25.056-4.487c-34.434-5.509-79.482,27.438-46.281,67.728c0-4.284,2.715-16.626,8.516-24.072
			c14.688-16.83,36.902-13.872,61.463-13.157c36.162,1.938,62.698-8.467,73.559,34.476c0,0.204,0.124,0.51,0.124,0.714
			c0.245-0.51,0.617-1.122,0.986-1.836c0.124-0.306,0.37-0.612,0.494-0.918c3.58-6.936,7.528-13.974,9.256-21.624
			C398.72,475.792,366.754,459.982,344.044,459.982z M382.921,522.916c-5.676-44.982-45.047-35.19-74.298-36.414
			c-21.723-0.714-38.63-2.55-55.416,6.834c-12.342,8.364-15.797,18.972-15.797,32.436c-27.153-38.453,15.674-67.728,46.528-62.934
			c14.687,2.652,20.981,6.937,40.112,2.958c4.443-0.918,17.525-3.876,22.956-2.754c19.13,1.326,38.136,12.546,42.949,24.684
			C394.646,499.252,386.131,515.164,382.921,522.916z"/>
	</g>
</g>
<g id="svga-group-hair-front" transform="matrix(1,0,0,1,0,0)">
	<path id="SvgjsPath3578" fill="#56342E" d="M109.3,364.918c-11.108-7.65-24.931-27.336-31.226-54.978
		c-1.358-5.61-2.222-11.424-3.209-17.646c-4.195-25.806-13.206-55.998-6.911-86.802c7.405-37.74,41.716-78.642,85.283-101.694
		c67.387-36.006,237.584-52.122,273.129-4.692c20.61-0.612,42.825,3.774,58.13,13.668c50.726,31.518,70.35,138.312,56.279,191.454
		c-9.38,36.21-11.849,45.798-30.607,59.976c6.664-166.26-3.703-121.38-12.218-166.056c-9.997-6.12-13.823-3.57-29.251-10.812
		c-30.855-18.768-29.251-26.316-43.197-39.474c-12.465,12.138-30.238,22.848-44.061,27.744c3.454-4.692,6.417-9.996,8.392-13.464
		l-1.604-1.122c-11.604,6.936-35.052,16.728-49.369,17.85c7.776-7.854,6.789-6.834,9.874-11.628
		c-11.479,5.814-23.819,9.894-39.248,10.914c14.564-5.916,21.104-9.996,32.46-17.85l-0.987-1.632
		c-78.495,19.686-97.132,24.174-154.646,32.64c-48.134,4.998-30.484,0.816-48.01,0.816c-28.141,0-32.584,69.768-31.35,93.024
		C109.917,350.128,105.844,337.48,109.3,364.918z"/>
	<path id="SvgjsPath3579" fill="#47251F" d="M540.775,304.228c-9.38,36.21-11.849,45.798-30.607,59.976
		c6.664-166.26-3.703-121.38-12.218-166.056c-9.997-6.12-13.823-3.57-29.251-10.812c-30.855-18.768-29.251-26.316-43.197-39.474
		c-12.465,12.138-30.238,22.848-44.061,27.744c3.454-4.692,6.417-9.996,8.392-13.464l-1.605-1.122
		c-11.602,6.936-35.05,16.728-49.367,17.85c7.775-7.854,6.789-6.834,9.874-11.628c-11.479,5.814-23.819,9.894-39.248,10.914
		c14.564-5.916,21.104-9.996,32.46-17.85l-0.987-1.632c-78.495,19.686-97.132,24.174-154.646,32.64
		c-48.134,4.998-30.484,0.816-48.01,0.816c-28.141,0-32.584,69.768-31.35,93.024c3.086,64.974-0.863,52.326,2.593,79.764
		c-11.108-7.65-24.932-27.336-31.226-54.978c-1.358-5.61-2.222-11.424-3.209-17.646c-4.197-25.806-13.206-55.998-6.911-86.802
		c5.924-29.784,50.849-73.644,81.58-97.104c-94.417,72.624-66.646,153.816-50.849,218.79c-4.69-57.426-18.02-149.94,44.925-153
		c85.159,0,180.934-9.996,240.175-58.956c-3.702,21.42-6.912,25.296-25.425,40.596c14.812-9.18,33.324-15.3,40.729-30.6
		c-3.703,12.24-3.703,21.42-14.811,30.6c11.107-6.12,22.216-15.3,33.323-24.48c0,9.18-7.405,18.36-11.107,27.54
		c7.405-15.3,29.62-24.48,33.323-39.78c-11.108,39.78,45.789,61.2,63.438,69.564c24.065,27.54,24.929,85.68,19.5,133.926
		c20.364-55.08,11.107-149.226-49.122-214.2C539.171,148.27,552.995,258.124,540.775,304.228z M163.357,149.8
		c45.171-1.122,78.372-7.14,126.876-29.784C243.58,136.846,214.083,144.802,163.357,149.8z M286.53,136.744
		c23.943-8.16,40.605-26.01,67.634-31.416C329.11,112.57,311.832,130.42,286.53,136.744z M142.993,148.27
		c17.155-25.5,53.812-46.614,99.971-49.776C205.319,104.308,165.085,122.158,142.993,148.27z"/>
	<path id="SvgjsPath3580" fill="#654640" d="M260.611,88.6c48.505-17.136,92.566-15.402,138.849,6.12
		c-48.628-17.136-85.776-13.872-85.776-13.872C304.797,81.358,290.727,81.052,260.611,88.6z M451.295,113.08
		c15.306,4.896,21.724,12.24,30.979,22.95c13.701,18.258,17.402,26.112,25.425,44.37
		C499.924,154.186,482.645,120.118,451.295,113.08z M364.286,112.264c-26.29,18.36-45.419,28.254-98.119,42.84
		C307.758,146.944,334.295,137.254,364.286,112.264z M449.445,131.44c7.652,21.522,21.722,33.558,43.442,44.37
		C472.647,163.162,459.442,151.534,449.445,131.44z M156.94,119.914c0,0-1.853,1.122-4.814,2.958
		c-33.817,19.788-60.353,57.732-60.97,105.672C98.562,180.808,121.395,147.148,156.94,119.914z M174.465,133.684
		c28.757-12.444,41.963-12.546,89.85-19.176C222.969,116.956,202.605,118.588,174.465,133.684z M252.466,146.638
		c-16.908,7.038-56.525,14.892-56.525,14.484c-13.946,2.55-38.014,6.936-38.014,6.936c9.38-1.02,25.302-2.55,38.631-4.896
		c0,0.408,32.583-6.12,42.086-10.2c10.49-4.08,6.911-2.448,17.401-7.956C255.922,145.21,254.565,145.72,252.466,146.638z"/>
	<path id="SvgjsPath3581" fill="#280E09" d="M485.113,112.06c-15.675-10.098-38.261-14.484-58.254-13.872
		c-17.032-22.848-70.967-29.376-103.55-29.682c-49.244-0.408-127.122,11.22-170.69,34.476
		c-40.604,21.522-77.877,62.118-85.776,102.306c-4.813,23.664-0.617,48.144,4.196,71.502c2.345,11.322,3.579,22.746,6.048,33.252
		c7.035,31.314,23.325,50.898,33.694,56.814c-3.95-30.192,0.369-15.3-2.84-81.805c-1.481-28.56,4.813-93.942,31.473-92.004
		c18.019,1.02,3.703,3.672,47.022-0.816c56.772-8.364,75.41-12.75,154.77-32.64c-12.465,8.568-18.884,12.444-35.545,19.074l0,0
		c-0.494,0.204-1.11,0.408-1.604,0.612c13.823-0.102,30.854-3.978,41.84-9.588c-1.482,2.346-6.048,6.528-9.38,10.098
		c14.192,0,39.74-10.506,52.452-18.054c-1.727,3.06-5.923,10.608-10.366,15.912c4.196-1.734,14.316-3.978,34.557-18.156
		c4.074-2.856,8.764-6.732,12.466-10.302c12.342,11.73,11.602,19.89,42.703,38.862c15.427,7.242,19.5,4.998,28.758,10.608
		c8.145,44.166,19.006-2.448,12.095,167.586c20.734-15.198,23.203-24.582,32.829-61.914
		C555.586,252.616,536.827,144.19,485.113,112.06z M535.716,303.82c-8.146,37.638-8.886,43.962-25.425,58.854
		c2.962-33.048,5.678-62.628,4.937-95.88c-1.604-49.164-9.503-39.882-15.181-69.564c-10.613-6.222-15.798-5.1-25.671-8.67
		c-1.729-0.51-3.085-1.428-4.69-2.04c-31.102-17.85-31.102-26.316-43.813-37.536c3.579-3.366,6.664-7.344,7.775-8.976
		c-5.554,6.936-29.497,25.194-52.206,35.598c3.948-5.1,6.911-10.098,9.009-14.586c6.418-3.672,10.86-7.242,14.563-10.2
		c-12.712,8.67-45.296,24.378-65.659,27.744c0.616-0.51,6.911-5.61,9.256-9.384c5.062-1.632,18.514-8.466,23.326-12.852
		c-23.326,12.852-49.861,20.604-59.117,21.828c11.354-3.468,26.041-14.484,33.57-19.482c7.282-4.794,8.762-6.732,16.291-13.056
		c-4.937,2.856-12.712,9.18-22.463,12.546c-5.676,2.04-162.544,38.25-189.819,32.334c-5.431-1.122-11.602-2.55-17.155-1.224
		c-43.691,15.504-27.646,115.158-27.029,145.758c0.493,25.806,2.715,30.294,2.715,30.294c-28.757-22.542-29.991-72.114-32.952-89.25
		c-3.827-22.848-7.159-47.022-1.975-69.666c8.268-38.658,44.06-77.724,82.444-98.124c57.267-30.702,228.08-56.712,270.413-8.67
		C532.137,99.31,546.823,242.416,535.716,303.82z"/>
</g>
<g id="svga-group-glasses-single-move" transform="matrix(1,0,0,1,0,0)">
	<g id="svga-group-glasses-single" transform="matrix(1,0,0,1,0,0)">
		<path id="SvgjsPath3033" fill="#26120B" d="M310.104,144.088L310.104,144.088L310.104,144.088L310.104,144.088z"/>
	</g>
</g>
<rect id="SvgjsRect1057" x="4.08" y="656.1" display="none" opacity="0.5" fill="#ECF0F1" enable-background="new    " width="612" height="45.9"/>
<ellipse fill="none" stroke="#150002" stroke-width="7" stroke-miterlimit="10" cx="211.738" cy="342.988" rx="78.617" ry="36.006"/>
<ellipse fill="none" stroke="#150002" stroke-width="7" stroke-miterlimit="10" cx="406.371" cy="343.6" rx="78.619" ry="36.006"/>
<path fill="none" stroke="#150002" stroke-width="7" stroke-miterlimit="10" d="M272.215,319.834
	c9.749-1.938,20.487-3.06,31.718-3.06c13.7,0,26.658,1.632,37.891,4.488"/>
<line fill="none" stroke="#150002" stroke-width="7" stroke-miterlimit="10" x1="484.373" y1="336.358" x2="534.48" y2="321.67"/>
<line fill="none" stroke="#150002" stroke-width="7" stroke-miterlimit="10" x1="80.79" y1="321.16" x2="135.835" y2="327.79"/>
</svg>
